<svg width="88" height="33" viewBox="0 0 88 33" fill="none" xmlns="http://www.w3.org/2000/svg">
<g clip-path="url(#clip0_906_60)">
<path d="M55.2823 1.09444C54.941 0.762789 54.5232 0.497668 54.0295 0.29845C53.5357 0.099609 52.962 0 52.3084 0C51.669 0 51.1025 0.099609 50.6088 0.29845C50.1148 0.497542 49.701 0.762789 49.3668 1.09444C49.0324 1.42609 48.7786 1.81661 48.6045 2.26598C48.43 2.71586 48.3428 3.19101 48.3428 3.69195C48.3428 4.19289 48.43 4.66829 48.6045 5.11767C48.7786 5.56754 49.0363 5.95793 49.3777 6.28946C49.7187 6.62111 50.1329 6.88296 50.6197 7.074C51.1061 7.2658 51.6619 7.36139 52.2866 7.36139C52.9402 7.36139 53.5176 7.2658 54.0186 7.074C54.5199 6.88283 54.941 6.62098 55.2823 6.28946C55.6237 5.95793 55.8814 5.57094 56.056 5.12873C56.2301 4.68678 56.3174 4.20798 56.3174 3.69195C56.3174 3.19101 56.2301 2.71586 56.056 2.26598C55.8816 1.81661 55.6237 1.42609 55.2823 1.09444Z" fill="#490756"/>
<path fill-rule="evenodd" clip-rule="evenodd" d="M43.7108 12.2199C42.643 11.1146 41.3684 10.2413 39.887 9.6003C38.4055 8.95926 36.7714 8.63867 34.9848 8.63867C33.2126 8.63867 31.5893 8.95926 30.115 9.6003C28.6408 10.2413 27.3771 11.1144 26.3238 12.2199C25.2707 13.3251 24.45 14.6184 23.8618 16.0995C23.2737 17.5806 22.9795 19.154 22.9795 20.8191C22.9795 22.4993 23.2737 24.0798 23.8618 25.5609C24.45 27.0419 25.2707 28.3317 26.3238 29.4294C27.377 30.5275 28.6408 31.3969 30.115 32.038C31.5893 32.679 33.2053 32.9996 34.963 32.9996C36.7495 32.9996 38.3871 32.6824 39.8761 32.0491C41.3649 31.4153 42.6431 30.5456 43.7108 29.4405C44.7786 28.3351 45.6064 27.0418 46.1946 25.5609C46.7828 24.0798 47.077 22.4993 47.077 20.8191C47.077 19.139 46.7828 17.5625 46.1946 16.0885C45.6064 14.6148 44.7785 13.3251 43.7108 12.2199ZM40.0287 23.2065C39.7597 23.929 39.3859 24.5516 38.9065 25.0747C38.4272 25.5977 37.8569 26.0031 37.1963 26.2905C36.5351 26.5779 35.8127 26.7214 35.0284 26.7214C34.2441 26.7214 33.5211 26.5779 32.8602 26.2905C32.1992 26.0031 31.6291 25.5977 31.15 25.0747C30.6705 24.5516 30.2964 23.9289 30.0278 23.2065C29.7592 22.4846 29.6249 21.689 29.6249 20.8191C29.6249 19.9493 29.759 19.1541 30.0278 18.4315C30.2964 17.7096 30.6705 17.087 31.15 16.5636C31.6292 16.0409 32.1992 15.6352 32.8602 15.3478C33.5211 15.0604 34.2438 14.9167 35.0284 14.9167C35.8129 14.9167 36.535 15.0606 37.1963 15.3478C37.8569 15.6352 38.4274 16.0408 38.9065 16.5636C39.3859 17.087 39.7598 17.7096 40.0287 18.4315C40.2971 19.1541 40.4316 19.9497 40.4316 20.8191C40.4316 21.6886 40.2971 22.4846 40.0287 23.2065Z" fill="#490756"/>
<path d="M55.6852 9.36865H48.9746V32.2704H55.6852V9.36865Z" fill="#490756"/>
<path d="M75.9117 9.41302C77.0446 9.92892 77.9815 10.6767 78.7224 11.6567C79.4633 12.6367 80.0152 13.8269 80.3784 15.2267C80.7412 16.6271 80.923 18.2111 80.923 19.9798V32.2705H74.2121V20.1343C74.2121 19.1765 74.1103 18.366 73.907 17.7028C73.7035 17.0396 73.4169 16.4978 73.0465 16.078C72.6761 15.658 72.2329 15.3522 71.7174 15.1607C71.2018 14.9691 70.6315 14.8733 70.0072 14.8733C69.3678 14.8733 68.7543 14.9946 68.1662 15.2378C67.578 15.4811 67.0582 15.8533 66.6083 16.3542C66.158 16.8555 65.7984 17.4855 65.5298 18.2443C65.2609 19.0034 65.1266 19.8912 65.1266 20.9082V32.2705H58.416V9.36875H64.8216V12.1319C65.1411 11.6161 65.544 11.1447 66.0311 10.7172C66.5176 10.2899 67.0659 9.92138 67.6759 9.61186C68.2859 9.30234 68.9469 9.063 69.6586 8.89334C70.3702 8.72431 71.1183 8.63916 71.9028 8.63916C73.4422 8.63916 74.7788 8.89736 75.9117 9.41302Z" fill="#490756"/>
<path d="M14.3097 14.6748H6.75561V8.41602H21.0826V22.4921C21.0826 23.9831 20.8317 25.38 20.337 26.6443C19.8397 27.9154 19.1219 29.0291 18.2039 29.9542C17.2868 30.8787 16.1663 31.6092 14.8736 32.1251C13.5873 32.6382 12.1385 32.8983 10.5673 32.8983C9.08236 32.8983 7.68272 32.6609 6.40741 32.1928C5.12516 31.7223 3.9955 31.0479 3.0503 30.1884C2.0999 29.3245 1.34597 28.2773 0.809712 27.0765C0.272466 25.8735 0 24.5316 0 23.0876V20.5449H6.75561V22.6672C6.75561 23.1593 6.84115 23.6485 7.00973 24.1212C7.17522 24.5854 7.41868 25.0003 7.73354 25.3541C8.04555 25.7047 8.44086 25.9926 8.90844 26.2101C9.37156 26.4254 9.9238 26.5346 10.5499 26.5346C11.15 26.5346 11.6853 26.4236 12.1406 26.2048C12.5996 25.9841 12.9928 25.6797 13.3092 25.3C13.6306 24.9149 13.8788 24.4472 14.0472 23.9098C14.2213 23.3535 14.3097 22.7411 14.3097 22.0895V14.6748Z" fill="#490756"/>
<path fill-rule="evenodd" clip-rule="evenodd" d="M86.1078 11.3865C86.231 11.248 86.2934 11.0636 86.2934 10.8386C86.2934 10.691 86.267 10.5629 86.2149 10.4578C86.1621 10.3516 86.0871 10.2637 85.9919 10.1966C85.8995 10.1314 85.7885 10.0842 85.6618 10.0566C85.5417 10.0304 85.4099 10.0171 85.2703 10.0171H84.3467V12.7804H84.893V11.7028H85.1957L85.8243 12.7804H86.4493L85.7578 11.6228C85.8983 11.5692 86.0156 11.4902 86.1078 11.3865ZM85.6263 11.1264C85.5373 11.1932 85.4015 11.2271 85.2226 11.2271H84.893V10.4891H85.2226C85.4049 10.4891 85.5435 10.5176 85.6343 10.5739C85.7104 10.621 85.7472 10.7077 85.7472 10.8387C85.7472 10.9713 85.7076 11.0652 85.6263 11.1264Z" fill="#490756"/>
<path fill-rule="evenodd" clip-rule="evenodd" d="M82.5596 11.399C82.5596 9.87723 83.7798 8.63916 85.2798 8.63916C86.7798 8.63916 88 9.87723 88 11.399C88 12.9208 86.7798 14.1589 85.2798 14.1589C83.7797 14.1589 82.5596 12.9208 82.5596 11.399ZM83.0801 11.399C83.0801 12.6296 84.0669 13.6308 85.2798 13.6308C86.4926 13.6308 87.4794 12.6297 87.4794 11.399C87.4794 10.1684 86.4926 9.16726 85.2798 9.16726C84.0669 9.16726 83.0801 10.1685 83.0801 11.399Z" fill="#490756"/>
</g>
<defs>
<clipPath id="clip0_906_60">
<rect width="88" height="33" fill="white"/>
</clipPath>
</defs>
</svg>
